<?xml version="1.0" encoding="UTF-8" standalone="no"?>
<!DOCTYPE svg  PUBLIC '-//W3C//DTD SVG 1.1//EN'  'http://www.w3.org/Graphics/SVG/1.1/DTD/svg11.dtd'>
<svg xmlns="http://www.w3.org/2000/svg">
<defs>
<font id="BuenosAiresWeb-Regular" horiz-adv-x="780">
<font-face underline-position="-150" font-weight="400" descent="-200" panose-1="0 0 5 0 0 0 0 0 0 0" units-per-em="1000" unicode-range="U+000D-FB03" bbox="-80 -250 1293 948" x-height="474" underline-thickness="50" font-family="BuenosAiresWeb" ascent="800" cap-height="658"/>
<missing-glyph horiz-adv-x="290"/>
<glyph glyph-name="uniA729" horiz-adv-x="775" unicode="tz" d="M725 375l-188 -200q96 -13 140 -64t44 -122q0 -96 -69 -152.5t-164 -56.5q-65 0 -124 29t-95 86l85 65q24 -41 63 -62.5t81 -21.5q50 0 85 27.5t35 72.5q0 53 -51.5 83t-144.5 30v99l173 190h-358v-378h-104v378h-113v96h113v121h104v-121h488v-99z"/>
<glyph glyph-name="ff" horiz-adv-x="683" unicode="ff" d="M600 584q-29 0 -46.5 -18t-17.5 -54v-38h123v-96h-123v-378h-104v378h-216v-378h-104v378h-92v96h92v43q0 78 44.5 118t110.5 40q57 0 109 -32l-40 -81q-29 22 -60 22q-60 0 -60 -72v-38h216v43q0 78 46 118t113 40q60 0 112 -32l-40 -81q-29 22 -63 22z"/>
<glyph glyph-name="fi" horiz-adv-x="605" unicode="fi" d="M545 474v-474h-104v378h-225v-378h-104v378h-92v96h92v43q0 78 46 118t113 40q60 0 112 -32l-40 -81q-29 22 -63 22q-29 0 -46.5 -18t-17.5 -54v-38h329z"/>
<glyph glyph-name="fl" horiz-adv-x="680" unicode="fl" d="M680 11q-44 -21 -92 -21q-63 0 -105 39t-42 119v230h-225v-378h-104v378h-92v96h92v43q0 78 45 118t111 40q58 0 110 -32l-40 -81q-29 22 -61 22q-61 0 -61 -72v-38h225v184h104v-505q0 -72 60 -72q19 0 41 8z"/>
<glyph glyph-name="ffi" horiz-adv-x="934" unicode="ffi" d="M874 474v-474h-104v378h-224v-378h-104v378h-226v-378h-104v378h-92v96h92v43q0 79 44 118.5t110 39.5q57 0 109 -32l-40 -81q-29 22 -60 22q-59 0 -59 -72v-38h226v43q0 78 46 118t113 40q60 0 112 -32l-40 -81q-29 22 -63 22q-29 0 -46.5 -18t-17.5 -54v-38h328z"/>
<glyph glyph-name="f_t" horiz-adv-x="732" unicode="ft" d="M712 22q-53 -32 -115 -32q-66 0 -111 40.5t-45 117.5v230h-225v-378h-104v378h-92v96h92v43q0 78 46 118t113 40q60 0 112 -32l-40 -81q-29 22 -63 22q-29 0 -46.5 -18t-17.5 -54v-38h225v121h104v-121h123v-96h-123v-225q0 -37 18.5 -54.5t47.5 -17.5q30 0 63 18z"/>
<glyph glyph-name="t_t" horiz-adv-x="743" unicode="tt" d="M723 22q-53 -32 -115 -32q-66 0 -111 40.5t-45 117.5v230h-226v-225q0 -72 63 -72q28 0 61 18l38 -77q-53 -32 -113 -32q-65 0 -109 40.5t-44 117.5v230h-102v96h102v121h104v-121h226v121h104v-121h123v-96h-123v-225q0 -37 18.5 -54.5t47.5 -17.5q30 0 63 18z"/>
<glyph glyph-name=".notdef" horiz-adv-x="290"/>
<glyph glyph-name=".null" horiz-adv-x="0"/>
<glyph glyph-name="nonmarkingreturn" horiz-adv-x="333"/>
<glyph glyph-name="CR" horiz-adv-x="270" unicode=""/>
<glyph glyph-name="space" horiz-adv-x="220" unicode=" "/>
<glyph glyph-name="exclam" horiz-adv-x="307" unicode="!" d="M237 63q0 -31 -21 -52t-52 -21t-52.5 21t-21.5 52t21 52.5t53 21.5q31 0 52 -21t21 -53zM208 199h-89l-12 493h113z"/>
<glyph glyph-name="quotedbl" horiz-adv-x="315" unicode='&quot;' d="M285 675v-201h-99v201h99zM127 675v-201h-97v201h97z"/>
<glyph glyph-name="numbersign" horiz-adv-x="666" unicode="#" d="M391 254l26 167h-146l-26 -167h146zM636 421h-128l-25 -167h119v-92h-134l-20 -131h-92l20 131h-146l-20 -131h-91l20 131h-109v92h124l26 167h-123v92h137l21 132h91l-21 -132h146l21 132h91l-20 -132h113v-92z"/>
<glyph glyph-name="dollar" horiz-adv-x="559" unicode="$" d="M514 180q0 -79 -49.5 -127.5t-127.5 -62.5v-88h-77v84q-128 8 -215 95l72 85q31 -39 77 -60.5t94 -21.5q49 0 82 21.5t33 62.5q0 18 -8 32.5t-17 24t-30.5 20t-34 15.5t-41.5 15q-36 13 -54.5 20.5t-50.5 26t-48.5 37.5t-30 50.5t-13.5 70.5q0 86 53.5 135t131.5 58v85 h77v-87q86 -14 143 -71l-58 -76q-25 27 -63 42.5t-73 15.5q-45 0 -75 -25t-30 -70q0 -47 33 -71.5t98 -46.5q100 -34 134 -57q68 -47 68 -132z"/>
<glyph glyph-name="percent" horiz-adv-x="933" unicode="%" d="M639 157q0 -34 22.5 -56.5t56.5 -22.5q33 0 54.5 22.5t21.5 56.5q0 35 -21.5 57.5t-54.5 22.5t-56 -22.5t-23 -57.5zM544 158q0 74 50 125t123 51t124.5 -51.5t51.5 -124.5t-51 -123t-125 -50q-73 0 -123 50t-50 123zM135 498q0 -34 22.5 -56.5t56.5 -22.5 q33 0 54.5 22.5t21.5 56.5q0 35 -21.5 57.5t-54.5 22.5t-56 -22.5t-23 -57.5zM288 43l-69 57l449 544l70 -55zM40 499q0 74 50 125t123 51t124.5 -51.5t51.5 -124.5t-51 -123t-125 -50q-73 0 -123 50t-50 123z"/>
<glyph glyph-name="ampersand" horiz-adv-x="660" unicode="&amp;" d="M296 80q73 0 122 51l-154 167q-45 -10 -67 -39.5t-22 -65.5q0 -46 32 -79.5t89 -33.5zM306 587q-34 0 -53 -21.5t-19 -53.5q0 -28 15 -52.5t48 -57.5q40 11 62 41.5t22 65.5q0 34 -20 56t-55 22zM630 53l-78 -68l-73 79q-25 -22 -44 -36t-59 -28.5t-85 -14.5 q-101 0 -161 59t-60 138q0 60 36 108.5t101 66.5q-37 41 -57 76.5t-20 81.5q0 68 48 114t127 46q80 0 128 -47t48 -112q0 -51 -31.5 -97.5t-90.5 -73.5l119 -130q22 43 30 86l86 -17q-11 -59 -52 -138z"/>
<glyph glyph-name="quotesingle" horiz-adv-x="162" unicode="&apos;" d="M132 675v-201h-102v201h102z"/>
<glyph glyph-name="parenleft" horiz-adv-x="297" unicode="(" d="M297 717q-88 -96 -131 -188t-43 -212t43 -212t131 -188l-79 -65q-98 101 -148 213t-50 252t50 252t148 213z"/>
<glyph glyph-name="parenright" horiz-adv-x="297" unicode=")" d="M0 717l79 65q98 -101 148 -213t50 -252t-50 -252t-148 -213l-79 65q88 96 131 188t43 212t-43 212t-131 188z"/>
<glyph glyph-name="asterisk" horiz-adv-x="462" unicode="*" d="M299 474l73 -94l-73 -52l-68 102l-67 -103l-75 54l74 93l-113 39l25 77l115 -36l-2 121h90l-6 -121l115 36l25 -77z"/>
<glyph glyph-name="plus" horiz-adv-x="424" unicode="+" d="M163 85v126h-123v95h123v126h98v-126h123v-95h-123v-126h-98z"/>
<glyph glyph-name="comma" horiz-adv-x="243" unicode="," d="M20 -144l92 274l111 -44l-117 -265z"/>
<glyph glyph-name="hyphen" horiz-adv-x="377" unicode="-" d="M50 307h277v-96h-277v96z"/>
<glyph glyph-name="period" horiz-adv-x="227" unicode="." d="M40 63q0 32 21 53t52 21t52.5 -21.5t21.5 -52.5t-21.5 -52t-52.5 -21t-52 21t-21 52z"/>
<glyph glyph-name="slash" horiz-adv-x="344" unicode="/" d="M344 643l-261 -658l-83 33l261 657z"/>
<glyph glyph-name="zero" horiz-adv-x="578" unicode="0" d="M289 85q72 0 107.5 68.5t35.5 175.5t-35.5 175.5t-107.5 68.5t-107.5 -68.5t-35.5 -175.5t35.5 -175.5t107.5 -68.5zM289 -15q-84 0 -141.5 48t-82.5 123.5t-25 172.5t25 172.5t82.5 123.5t141.5 48t141.5 -48t82.5 -123.5t25 -172.5t-25 -172.5t-82.5 -123.5t-141.5 -48 z"/>
<glyph glyph-name="one" horiz-adv-x="333" unicode="1" d="M139 0v563h-89v95h193v-658h-104z"/>
<glyph glyph-name="two" horiz-adv-x="507" unicode="2" d="M467 0h-421v99l211 221q90 92 90 166q0 44 -29 69t-71 25q-44 0 -80 -27.5t-45 -77.5l-92 29q18 81 81.5 126t141.5 45q82 0 140 -49.5t58 -138.5q0 -62 -30 -113t-88 -112l-158 -163h292v-99z"/>
<glyph glyph-name="three" horiz-adv-x="492" unicode="3" d="M307 350q145 -36 145 -169q0 -88 -66 -141.5t-156 -54.5h-3q-66 0 -124.5 31t-92.5 93l90 57q19 -41 55.5 -62.5t79.5 -21.5q48 0 81 26t33 73q0 108 -175 108v97q71 0 109 28.5t38 75.5q0 41 -28 64.5t-70 23.5q-73 0 -115 -65l-74 56q32 52 87 79t114 27 q79 0 135.5 -45.5t56.5 -123.5q0 -54 -30 -97t-90 -59z"/>
<glyph glyph-name="four" horiz-adv-x="540" unicode="4" d="M303 517l-181 -260h181v260zM407 658v-401h103v-99h-103v-158h-104v158h-293v99l279 401h118z"/>
<glyph glyph-name="five" horiz-adv-x="550" unicode="5" d="M133 175q17 -45 53.5 -69t79.5 -24q57 0 99 38t42 102q0 59 -35.5 91t-88.5 32q-76 0 -126 -53h-74v366h377v-99h-277v-163q55 40 126 40q82 0 141.5 -55t59.5 -155q0 -111 -72.5 -176t-171.5 -65q-68 0 -129 35t-97 103z"/>
<glyph glyph-name="six" horiz-adv-x="570" unicode="6" d="M293 80q63 0 97 39t34 94q0 53 -32.5 90.5t-95.5 37.5t-98.5 -38t-35.5 -92t34 -92.5t97 -38.5zM316 435q100 0 157 -62.5t57 -151.5q0 -93 -62 -164.5t-173 -71.5h-6q-118 2 -183.5 88t-65.5 219q0 75 22 142.5t64.5 122t114.5 86.5t163 32l6 -95q-108 0 -178 -57.5 t-86 -181.5q51 94 170 94z"/>
<glyph glyph-name="seven" horiz-adv-x="490" unicode="7" d="M480 658v-108l-277 -550h-115l287 549h-365v109h470z"/>
<glyph glyph-name="eight" horiz-adv-x="572" unicode="8" d="M289 78q55 0 94 26t39 74q0 89 -149 133q-44 -4 -83.5 -39.5t-39.5 -86.5q0 -52 41 -79.5t98 -27.5zM286 586q-46 0 -78 -23t-32 -64q0 -24 11 -43t31 -31.5t36 -19t39 -13.5q40 7 73 36t33 71q0 41 -33 64t-80 23zM383 353q144 -53 144 -176q0 -91 -71 -141.5 t-169 -50.5t-170 51.5t-72 143.5q0 68 40.5 109.5t104.5 55.5q-45 19 -81.5 59t-36.5 101q0 80 64.5 125t151.5 45t150.5 -45.5t63.5 -127.5q0 -109 -119 -149z"/>
<glyph glyph-name="nine" horiz-adv-x="570" unicode="9" d="M277 578q-63 0 -97 -39t-34 -94q0 -53 32.5 -90.5t95.5 -37.5t98.5 38t35.5 92t-34 92.5t-97 38.5zM254 223q-100 0 -157 62.5t-57 151.5q0 93 62 164.5t173 71.5h6q118 -2 183.5 -88t65.5 -219q0 -75 -22 -142.5t-64.5 -122t-114.5 -86.5t-163 -32l-6 95q108 0 178 57.5 t86 181.5q-51 -94 -170 -94z"/>
<glyph glyph-name="colon" horiz-adv-x="257" unicode=":" d="M70 112q0 32 21 53t52 21t52.5 -21t21.5 -53q0 -31 -21.5 -52t-52.5 -21t-52 21t-21 52zM70 412q0 32 21 53t52 21t52.5 -21t21.5 -53q0 -31 -21.5 -52t-52.5 -21t-52 21t-21 52z"/>
<glyph glyph-name="semicolon" horiz-adv-x="306" unicode=";" d="M40 -144l92 274l111 -44l-117 -265zM119 420q0 32 21 53t52 21q32 0 53 -21t21 -53q0 -31 -21.5 -52t-52.5 -21t-52 21t-21 52z"/>
<glyph glyph-name="less" horiz-adv-x="383" unicode="&lt;" d="M40 238l228 253l75 -71l-164 -182l164 -182l-75 -71z"/>
<glyph glyph-name="equal" horiz-adv-x="424" unicode="=" d="M40 126v95h344v-95h-344zM40 296v95h344v-95h-344z"/>
<glyph glyph-name="greater" horiz-adv-x="383" unicode="&gt;" d="M343 238l-228 -253l-75 71l164 182l-164 182l75 71z"/>
<glyph glyph-name="question" horiz-adv-x="494" unicode="?" d="M214 137q32 0 53 -21.5t21 -52.5t-21.5 -52t-52.5 -21t-52 21t-21 52q0 32 21 53t52 21zM251 675q95 0 149 -53t54 -125q0 -71 -49 -127t-140 -67v-105h-105v173h42q71 0 110 34.5t39 80.5q0 38 -28 64.5t-77 26.5q-79 0 -127 -75l-79 60q36 53 91.5 83t119.5 30z"/>
<glyph glyph-name="at" horiz-adv-x="793" unicode="@" d="M372 178q40 0 64.5 28.5t24.5 73.5t-24 71.5t-64 26.5q-43 0 -68 -29.5t-25 -68.5t25 -70.5t67 -31.5zM404 625q88 0 164 -35.5t125.5 -109t49.5 -172.5q0 -91 -38 -145t-102 -54q-40 0 -68 22.5t-37 64.5q-14 -43 -51.5 -67t-85.5 -24q-76 0 -120 52t-44 122 q0 69 44 121t120 52q92 0 123 -75v62h78v-192q0 -73 49 -73q33 0 52.5 32.5t19.5 88.5q0 123 -82.5 196t-197.5 73q-118 0 -207.5 -78t-89.5 -209q0 -112 67 -193.5t182 -81.5q77 0 147 49l37 -50q-71 -61 -189 -61q-96 0 -168 48t-107 123t-35 165q0 108 54 189.5 t135.5 120.5t174.5 39z"/>
<glyph glyph-name="A" horiz-adv-x="659" unicode="A" d="M423 265l-94 252l-93 -252h187zM459 166h-260l-61 -166h-118l257 658h106l256 -658h-118z"/>
<glyph glyph-name="B" horiz-adv-x="578" unicode="B" d="M302 99q56 0 86.5 28.5t30.5 67.5q0 40 -31 68.5t-86 28.5h-114v-193h114zM188 390h102q48 0 74.5 27t26.5 63q0 79 -95 79h-108v-169zM404 349q62 -17 93 -59.5t31 -96.5q0 -76 -57.5 -134.5t-159.5 -58.5h-231v658h229q92 0 142 -51t50 -120q0 -48 -25.5 -85.5 t-71.5 -52.5z"/>
<glyph glyph-name="C" horiz-adv-x="714" unicode="C" d="M684 191q-44 -101 -127.5 -153.5t-181.5 -52.5q-133 0 -229 91.5t-96 248.5q0 109 50 190.5t127 120.5t166 39q77 0 144 -29.5t113 -83.5l-73 -79q-70 89 -188 89q-95 0 -162 -64t-67 -178q0 -113 65.5 -177.5t158.5 -64.5q68 0 125.5 38.5t88.5 111.5z"/>
<glyph glyph-name="D" horiz-adv-x="692" unicode="D" d="M308 559h-120v-460h115q109 0 169 67.5t60 162.5q0 94 -59 162t-165 68zM80 0v658h229q156 0 244.5 -95t88.5 -227q0 -63 -22 -122t-63.5 -107.5t-110 -77.5t-153.5 -29h-213z"/>
<glyph glyph-name="E" horiz-adv-x="535" unicode="E" d="M467 559h-279v-181h223v-99h-223v-180h287v-99h-395v658h387v-99z"/>
<glyph glyph-name="F" horiz-adv-x="527" unicode="F" d="M188 279v-279h-108v658h387v-99h-279v-181h223v-99h-223z"/>
<glyph glyph-name="G" horiz-adv-x="721" unicode="G" d="M649 357v-283q-116 -89 -255 -89q-142 0 -243 93t-101 253q0 81 28.5 147.5t77 109t109.5 65t128 22.5q158 0 258 -113l-72 -79q-70 90 -191 90q-96 0 -162 -62t-66 -176q0 -118 70.5 -183.5t169.5 -65.5q78 0 141 38v133h-152v100h260z"/>
<glyph glyph-name="H" horiz-adv-x="689" unicode="H" d="M80 0v658h107v-278h315v278h107v-658h-107v280h-315v-280h-107z"/>
<glyph glyph-name="I" horiz-adv-x="268" unicode="I" d="M80 0v658h108v-658h-108z"/>
<glyph glyph-name="J" horiz-adv-x="497" unicode="J" d="M319 658h108v-462q0 -100 -60 -155.5t-142 -55.5q-74 0 -132.5 45t-72.5 126l108 25q7 -46 32.5 -69t63.5 -23q41 0 68 28t27 78v463z"/>
<glyph glyph-name="K" horiz-adv-x="631" unicode="K" d="M462 0l-274 285v-285h-108v658h108v-279l267 279h139l-309 -320l326 -338h-149z"/>
<glyph glyph-name="L" horiz-adv-x="493" unicode="L" d="M80 658h108v-559h275v-99h-383v658z"/>
<glyph glyph-name="M" horiz-adv-x="828" unicode="M" d="M748 658v-658h-108v456l-177 -308h-98l-177 308v-456h-108v658h120l214 -372l214 372h120z"/>
<glyph glyph-name="N" horiz-adv-x="706" unicode="N" d="M80 0v658h108l330 -465v465h108v-658h-108l-330 461v-461h-108z"/>
<glyph glyph-name="O" d="M390 570q-97 0 -163.5 -69t-66.5 -172t66.5 -172t163.5 -69q96 0 163 69t67 172t-67 172t-163 69zM390 673q145 0 242.5 -99t97.5 -245t-97.5 -245t-242.5 -99t-242.5 99t-97.5 245t97.5 245t242.5 99z" unicode="O"/>
<glyph glyph-name="P" horiz-adv-x="541" unicode="P" d="M188 369h109q49 0 77 30t28 69q0 38 -27 64.5t-76 26.5h-111v-190zM314 658q93 0 145 -57t52 -134q0 -79 -54.5 -137t-147.5 -58h-121v-272h-108v658h234z"/>
<glyph glyph-name="Q" d="M160 329q0 -103 66.5 -172t163.5 -69q96 0 163 69t67 172t-67 172t-163 69q-97 0 -163.5 -69t-66.5 -172zM563 30q43 -56 136 -83l-39 -98q-129 42 -186 146q-39 -10 -84 -10q-145 0 -242.5 99t-97.5 245t97.5 245t242.5 99t242.5 -99t97.5 -245q0 -96 -45 -175 t-122 -124z" unicode="Q"/>
<glyph glyph-name="R" horiz-adv-x="583" unicode="R" d="M297 370q50 0 77.5 28.5t27.5 67.5q0 38 -28 65.5t-77 27.5h-109v-189h109zM558 0h-132l-151 272h-87v-272h-108v658h234q92 0 145 -55.5t53 -131.5q0 -58 -31.5 -107.5t-89.5 -72.5z"/>
<glyph glyph-name="S" horiz-adv-x="559" unicode="S" d="M422 524q-25 27 -63 42.5t-73 15.5q-45 0 -75 -25t-30 -70q0 -47 33 -71.5t98 -46.5q100 -34 134 -57q68 -47 68 -132q0 -93 -67.5 -144t-164.5 -51q-141 0 -237 96l72 85q31 -39 77 -60.5t94 -21.5q49 0 82 21.5t33 62.5q0 18 -8 32.5t-17 24t-30.5 20t-34 15.5 t-41.5 15q-36 13 -54.5 20.5t-50.5 26t-48.5 37.5t-30 50.5t-13.5 70.5q0 95 65 145t153 50q110 0 187 -75z"/>
<glyph glyph-name="T" horiz-adv-x="578" unicode="T" d="M343 559v-559h-108v559h-215v99h538v-99h-215z"/>
<glyph glyph-name="U" horiz-adv-x="648" unicode="U" d="M324 -15q-66 0 -122 26t-94 83t-38 136v428h108v-407q0 -79 42.5 -120.5t103.5 -41.5t103.5 41t42.5 121v407h108v-428q0 -117 -75.5 -181t-178.5 -64z"/>
<glyph glyph-name="V" horiz-adv-x="647" unicode="V" d="M627 658l-255 -658h-103l-249 658h115l187 -500l185 500h120z"/>
<glyph glyph-name="W" horiz-adv-x="964" unicode="W" d="M954 658l-219 -658h-103l-150 470l-150 -470h-103l-219 658h119l148 -474l149 474h112l149 -474l148 474h119z"/>
<glyph glyph-name="X" horiz-adv-x="666" unicode="X" d="M646 658l-243 -329l243 -329h-138l-175 243l-176 -243h-137l246 333l-241 325h136l175 -242l175 242h135z"/>
<glyph glyph-name="Y" horiz-adv-x="618" unicode="Y" d="M363 283v-283h-108v284l-245 374h133l166 -271l167 271h132z"/>
<glyph glyph-name="Z" horiz-adv-x="554" unicode="Z" d="M40 0v89l325 470h-317v99h450v-88l-325 -471h341v-99h-474z"/>
<glyph glyph-name="bracketleft" horiz-adv-x="272" unicode="[" d="M262 -147h-192v888h192v-96h-90v-695h90v-97z"/>
<glyph glyph-name="backslash" horiz-adv-x="344" unicode="\" d="M0 643l83 32l261 -657l-83 -33z"/>
<glyph glyph-name="bracketright" horiz-adv-x="272" unicode="]" d="M10 -147v97h90v695h-90v96h192v-888h-192z"/>
<glyph glyph-name="asciicircum" horiz-adv-x="479" unicode="^" d="M382 364l-142 148l-143 -148l-77 77l220 234l219 -234z"/>
<glyph glyph-name="underscore" horiz-adv-x="440" unicode="_" d="M40 96h360v-96h-360v96z"/>
<glyph glyph-name="grave" horiz-adv-x="263" unicode="`" d="M263 653l-28 -90l-235 71l25 92z"/>
<glyph glyph-name="a" horiz-adv-x="643" unicode="a" d="M283 85q58 0 101 41t43 114t-42.5 113t-100.5 40q-57 0 -98.5 -40t-41.5 -114t40.5 -114t98.5 -40zM633 27q-32 -36 -85 -36q-38 0 -68.5 21t-39.5 61q-29 -41 -76 -62t-97 -21q-92 0 -159.5 66t-67.5 181q0 118 71 183.5t167 65.5q107 0 151 -71v59h102v-346 q0 -43 35 -43q22 0 37 12z"/>
<glyph glyph-name="b" horiz-adv-x="601" unicode="b" d="M318 85q57 0 98.5 40.5t41.5 112.5q0 74 -42 114.5t-99 40.5q-58 0 -100.5 -41t-42.5 -113q0 -73 42.5 -113.5t101.5 -40.5zM328 486q93 0 163 -66t70 -181q0 -112 -68 -180.5t-161 -68.5q-104 0 -160 69v-59h-102v658h104v-243q55 71 154 71z"/>
<glyph glyph-name="c" horiz-adv-x="515" unicode="c" d="M495 120q-32 -62 -91 -96t-126 -34q-96 0 -167 66.5t-71 181.5q0 116 72 182t170 66q56 0 107.5 -24t86.5 -70l-70 -66q-41 64 -119 64q-58 0 -101 -40t-43 -111q0 -70 42.5 -110.5t99.5 -40.5q38 0 75 20.5t59 64.5z"/>
<glyph glyph-name="d" horiz-adv-x="601" unicode="d" d="M283 85q58 0 101 40.5t43 113.5q0 72 -42.5 113t-100.5 41q-59 0 -100 -40.5t-41 -114.5q0 -73 40.5 -113t99.5 -40zM531 658v-658h-102v61q-64 -71 -163 -71q-93 0 -159.5 67.5t-66.5 181.5q0 115 71.5 181t165.5 66q45 0 85.5 -16.5t64.5 -46.5v235h104z"/>
<glyph glyph-name="e" horiz-adv-x="538" unicode="e" d="M277 393q-48 0 -84.5 -30.5t-42.5 -85.5h244q-1 56 -35 86t-82 30zM498 250q0 -35 -4 -59h-341q11 -52 49 -78t88 -26q86 0 134 67l67 -65q-79 -99 -204 -99q-99 0 -173 67t-74 183q0 115 71.5 180.5t170.5 65.5q93 0 154.5 -61t61.5 -175z"/>
<glyph glyph-name="f" horiz-adv-x="363" unicode="f" d="M112 0v378h-92v96h92v43q0 78 46 118t113 40q60 0 112 -32l-40 -81q-29 22 -63 22q-29 0 -46.5 -18t-17.5 -54v-38h123v-96h-123v-378h-104z"/>
<glyph glyph-name="g" horiz-adv-x="595" unicode="g" d="M287 109q58 0 101 38t43 105t-42.5 104t-100.5 37t-99.5 -37t-41.5 -104q0 -66 41 -104.5t99 -38.5zM535 474v-450q0 -116 -72.5 -180t-173.5 -64q-86 0 -156 46t-93 131l98 38q14 -57 57 -88t97 -31q58 0 99.5 36t41.5 103v74q-60 -75 -162 -75q-91 0 -159 64.5 t-68 172.5q0 110 71 172.5t164 62.5q103 0 154 -68v56h102z"/>
<glyph glyph-name="h" horiz-adv-x="563" unicode="h" d="M322 486q71 0 121 -46t50 -131v-309h-104v273q0 57 -26.5 85t-69.5 28q-51 0 -85 -37.5t-34 -103.5v-245h-104v658h104v-253q50 81 148 81z"/>
<glyph glyph-name="i" horiz-adv-x="270" unicode="i" d="M83 0v474h104v-474h-104zM60 620q0 32 21 53.5t53 21.5t54 -21.5t22 -53.5q0 -31 -22 -52.5t-54 -21.5t-53 21t-21 53z"/>
<glyph glyph-name="j" horiz-adv-x="264" unicode="j" d="M181 474v-537q0 -78 -44.5 -117.5t-109.5 -39.5q-58 0 -107 32l39 80q27 -21 59 -21q26 0 42.5 17.5t16.5 52.5v533h104zM54 620q0 32 21 53.5t53 21.5t54 -21.5t22 -53.5q0 -31 -22 -52.5t-54 -21.5t-53 21t-21 53z"/>
<glyph glyph-name="k" horiz-adv-x="558" unicode="k" d="M399 0l-224 215l-1 -215h-104v658h104v-391l202 207h149l-235 -223l263 -251h-154z"/>
<glyph glyph-name="l" horiz-adv-x="309" unicode="l" d="M309 11q-43 -21 -92 -21q-63 0 -105 39t-42 119v510h104v-505q0 -72 60 -72q19 0 41 8z"/>
<glyph glyph-name="m" horiz-adv-x="813" unicode="m" d="M582 486q67 0 114 -44.5t47 -127.5v-314h-104v285q0 49 -22.5 75t-59.5 26q-42 0 -70 -31.5t-28 -89.5v-265h-104v285q0 49 -23 75t-60 26q-41 0 -69.5 -31.5t-28.5 -89.5v-265h-104v474h102v-63q44 75 133 75q41 0 76 -21t55 -61q46 82 146 82z"/>
<glyph glyph-name="n" horiz-adv-x="563" unicode="n" d="M70 0v474h102v-68q50 80 150 80q71 0 121 -46t50 -131v-309h-104v273q0 57 -26.5 85t-69.5 28q-51 0 -85 -37.5t-34 -103.5v-245h-104z"/>
<glyph glyph-name="o" horiz-adv-x="576" unicode="o" d="M288 390q-63 0 -104 -42.5t-41 -108.5t40.5 -109t104.5 -43t104.5 43t40.5 109t-41 108.5t-104 42.5zM288 486q107 0 177.5 -71t70.5 -177t-70.5 -177t-177.5 -71t-177.5 71t-70.5 177t70.5 177t177.5 71z"/>
<glyph glyph-name="p" horiz-adv-x="601" unicode="p" d="M318 85q57 0 98.5 40.5t41.5 112.5t-42 111.5t-99 39.5q-58 0 -100.5 -39.5t-42.5 -110.5q0 -73 42.5 -113.5t101.5 -40.5zM329 482q91 0 161.5 -65t70.5 -180t-68.5 -181t-161.5 -66q-99 0 -157 67v-265h-104v682h102v-65q55 73 157 73z"/>
<glyph glyph-name="q" horiz-adv-x="601" unicode="q" d="M283 85q58 0 101 40.5t43 113.5q0 71 -42.5 110.5t-100.5 39.5t-99.5 -39.5t-41.5 -111.5q0 -73 41 -113t99 -40zM531 474v-682h-104v268q-61 -70 -161 -70q-92 0 -159 66t-67 183q0 113 71.5 178t165.5 65q92 0 152 -65v57h102z"/>
<glyph glyph-name="r" horiz-adv-x="364" unicode="r" d="M292 480q34 0 62 -11l-23 -105q-30 12 -60 12q-43 0 -70 -28t-27 -86v-262h-104v474h102v-58q35 64 120 64z"/>
<glyph glyph-name="s" horiz-adv-x="480" unicode="s" d="M450 145q0 -71 -58 -113t-142 -42q-63 0 -123 24.5t-97 69.5l77 72q58 -73 152 -73q37 0 61.5 14t24.5 35q0 16 -15 26.5t-33.5 16t-51.5 12.5q-7 1 -10 2q-37 8 -61 16t-53.5 24.5t-44.5 44t-15 65.5q0 72 54 109.5t135 37.5q101 0 175 -55l-59 -77q-49 41 -116 41 q-36 0 -60 -14t-24 -40q0 -28 27 -40.5t85 -23.5q32 -6 49.5 -10.5t44.5 -15t41.5 -23t25.5 -34t11 -49.5z"/>
<glyph glyph-name="t" horiz-adv-x="413" unicode="t" d="M393 22q-53 -32 -115 -32q-66 0 -111 40.5t-45 117.5v230h-102v96h102v121h104v-121h123v-96h-123v-225q0 -37 18.5 -54.5t47.5 -17.5q30 0 63 18z"/>
<glyph glyph-name="u" horiz-adv-x="549" unicode="u" d="M479 474v-474h-102v63q-51 -73 -140 -73q-72 0 -124.5 47.5t-52.5 138.5v298h104v-272q0 -52 25.5 -80.5t67.5 -28.5q48 0 83 37t35 102v242h104z"/>
<glyph glyph-name="v" horiz-adv-x="521" unicode="v" d="M501 474l-189 -474h-102l-190 474h116l125 -344l124 344h116z"/>
<glyph glyph-name="w" horiz-adv-x="835" unicode="w" d="M815 474l-176 -474h-102l-120 310l-120 -310h-102l-175 474h116l109 -327l119 327h106l120 -327l109 327h116z"/>
<glyph glyph-name="x" horiz-adv-x="538" unicode="x" d="M334 238l194 -238h-137l-122 155l-122 -155h-137l194 238l-194 236h138l121 -153l121 153h138z"/>
<glyph glyph-name="y" horiz-adv-x="580" unicode="y" d="M510 474v-461q0 -109 -70 -171t-166 -62q-81 0 -147 45.5t-87 132.5l99 34q11 -54 50.5 -85t89.5 -31q54 0 91.5 36t37.5 101v76q-48 -84 -142 -84q-74 0 -131 51t-57 145v273h104v-257q0 -53 28 -82.5t73 -29.5q52 0 87.5 37.5t35.5 103.5v228h104z"/>
<glyph glyph-name="z" horiz-adv-x="498" unicode="z" d="M40 0v98l266 278h-255v98h392v-99l-258 -277h273v-98h-418z"/>
<glyph glyph-name="braceleft" horiz-adv-x="332" unicode="{" d="M201 14q0 -32 21.5 -47.5t49.5 -15.5l-12 -84q-64 0 -112.5 33.5t-48.5 106.5v181q0 67 -69 67v92q69 0 69 67v181q0 73 48.5 106.5t112.5 33.5l12 -84q-28 0 -49.5 -15.5t-21.5 -47.5v-184q0 -43 -25 -70t-58 -33q33 -6 58 -33t25 -70v-184z"/>
<glyph glyph-name="bar" horiz-adv-x="282" unicode="|" d="M192 700v-827h-102v827h102z"/>
<glyph glyph-name="braceright" horiz-adv-x="332" unicode="}" d="M131 14v184q0 43 25 70t58 33q-33 6 -58 33t-25 70v184q0 32 -21.5 47.5t-49.5 15.5l12 84q64 0 112.5 -33.5t48.5 -106.5v-181q0 -67 69 -67v-92q-69 0 -69 -67v-181q0 -73 -48.5 -106.5t-112.5 -33.5l-12 84q28 0 49.5 15.5t21.5 47.5z"/>
<glyph glyph-name="asciitilde" horiz-adv-x="610" unicode="~" d="M30 251q24 61 69.5 99t103.5 38q40 0 82 -20t77 -40.5t59 -20.5q42 0 73 68l86 -50q-19 -58 -62 -98.5t-103 -40.5q-40 0 -79.5 21t-73.5 42t-59 21q-48 0 -88 -72z"/>
<glyph glyph-name="exclamdown" horiz-adv-x="297" unicode="¡" d="M178 376l12 -493h-113l12 493h89zM207 512q0 -32 -21 -53t-52 -21q-32 0 -53 21t-21 53q0 31 21.5 52t52.5 21t52 -21t21 -52z"/>
<glyph glyph-name="cent" horiz-adv-x="515" unicode="¢" d="M495 120q-55 -103 -169 -125v-93h-77v90q-88 10 -148.5 75t-60.5 171t60.5 170.5t148.5 75.5v84h77v-86q95 -17 150 -90l-70 -66q-41 64 -119 64q-58 0 -101 -40t-43 -111q0 -70 42.5 -110.5t99.5 -40.5q38 0 75 20.5t59 64.5z"/>
<glyph glyph-name="sterling" horiz-adv-x="603" unicode="£" d="M142 74q21 0 39 13.5t27 35.5q-29 30 -65 30q-20 0 -31.5 -11.5t-11.5 -27.5t11.5 -28t30.5 -12zM593 118q-60 -133 -168 -133q-72 0 -155 70q-45 -70 -130 -70q-60 0 -95 36t-35 87q0 49 31.5 86t87.5 37q47 0 90 -30q3 38 3 84l1 73h-112v76h112v83q0 78 46 118t113 40 q60 0 112 -32l-40 -81q-29 22 -63 22q-29 0 -46.5 -18t-17.5 -54v-78h143v-76h-143v-107q0 -82 -14 -119q3 -2 11.5 -8t11.5 -8t11 -7t11.5 -7l10.5 -6t11.5 -5.5l10.5 -3.5t12 -2.5t12 -0.5q62 0 99 81z"/>
<glyph glyph-name="currency" horiz-adv-x="625" unicode="¤" d="M312 148q52 0 85.5 35t33.5 88t-33.5 88t-85.5 35t-85.5 -35t-33.5 -88t33.5 -88t85.5 -35zM519 271q0 -66 -33 -119l109 -108l-55 -55l-106 106q-51 -39 -122 -39q-69 0 -122 39l-105 -106l-55 55l108 107q-33 53 -33 120t34 120l-109 108l55 55l106 -107q51 39 121 39 q69 0 122 -39l106 107l55 -55l-109 -108q33 -53 33 -120z"/>
<glyph glyph-name="yen" horiz-adv-x="618" unicode="¥" d="M608 658l-242 -370h141v-75h-144v-75h144v-75h-144v-63h-108v63h-144v75h144v75h-144v75h141l-242 370h133l166 -271l167 271h132z"/>
<glyph glyph-name="brokenbar" horiz-adv-x="282" unicode="¦" d="M192 240v-367h-102v367h102zM192 700v-367h-102v367h102z"/>
<glyph glyph-name="section" horiz-adv-x="559" unicode="§" d="M293 266q28 0 47.5 20t19.5 48t-19.5 47.5t-47.5 19.5t-48 -19.5t-20 -47.5t19.5 -48t48.5 -20zM440 311q74 -51 74 -132q0 -92 -67.5 -143t-164.5 -51q-141 0 -237 96l68 80q31 -42 78.5 -64.5t96.5 -22.5q48 0 80.5 21.5t32.5 62.5q0 32 -23 53q-36 -27 -85 -27 q-63 0 -106.5 43.5t-43.5 106.5v11q-68 55 -68 135q0 94 65.5 144.5t153.5 50.5q109 0 186 -75l-54 -71q-24 29 -63.5 46t-75.5 17q-45 0 -77.5 -25.5t-32.5 -69.5q0 -29 15 -52q45 38 101 38q62 0 105.5 -43.5t43.5 -105.5q0 -15 -2 -23z"/>
<glyph glyph-name="dieresis" horiz-adv-x="356" unicode="¨" d="M356 633q0 -28 -20 -47.5t-49 -19.5q-28 0 -48 19.5t-20 47.5q0 29 19.5 48.5t48.5 19.5t49 -19.5t20 -48.5zM136 633q0 -28 -20 -47.5t-48 -19.5t-48 19.5t-20 47.5q0 29 20 48.5t48 19.5t48 -19.5t20 -48.5z"/>
<glyph glyph-name="copyright" horiz-adv-x="794" unicode="©" d="M558 249q-24 -46 -67.5 -71.5t-92.5 -25.5q-72 0 -124.5 49.5t-52.5 134.5q0 87 53 135.5t127 48.5q89 0 143 -70l-52 -49q-29 47 -88 47q-43 0 -75 -29.5t-32 -81.5t31.5 -82t73.5 -30q68 0 99 63zM397 37q121 0 203 83.5t82 212.5t-82 212.5t-203 83.5t-203 -83.5 t-82 -212.5t82 -212.5t203 -83.5zM397 684q149 0 248 -100t99 -251t-99 -251t-248 -100t-248 100t-99 251t99 251t248 100z"/>
<glyph glyph-name="ordfeminine" horiz-adv-x="544" unicode="ª" d="M227 370q41 0 71 28.5t30 79.5q0 50 -30 78t-70 28q-41 0 -70 -28t-29 -79q0 -50 28.5 -78.5t69.5 -28.5zM524 313q-27 -37 -78 -37q-32 0 -59.5 17.5t-38.5 51.5q-22 -32 -57.5 -50t-75.5 -18q-73 0 -129 54t-56 145q0 92 58 145.5t131 53.5q66 0 111 -42v36h98v-255 q0 -20 10 -29.5t24 -9.5q18 0 35 15z"/>
<glyph glyph-name="guillemotleft" horiz-adv-x="568" unicode="«" d="M404 261l124 -147l-77 -65l-181 212l181 212l77 -65zM154 261l124 -147l-77 -65l-181 212l181 212l77 -65z"/>
<glyph glyph-name="logicalnot" horiz-adv-x="460" unicode="¬" d="M50 307h360v-187h-99v92h-261v95z"/>
<glyph glyph-name="registered" horiz-adv-x="794" unicode="®" d="M412 350q24 0 36 13t12 32q0 18 -11.5 30.5t-35.5 12.5h-63v-88h62zM528 399q0 -34 -17.5 -60.5t-52.5 -37.5l82 -124h-83l-66 105h-41v-105h-69v327h131q54 0 85 -31.5t31 -73.5zM397 37q121 0 203 83.5t82 212.5t-82 212.5t-203 83.5t-203 -83.5t-82 -212.5t82 -212.5 t203 -83.5zM397 684q149 0 248 -100t99 -251t-99 -251t-248 -100t-248 100t-99 251t99 251t248 100z"/>
<glyph glyph-name="macron" horiz-adv-x="279" unicode="¯" d="M0 666h279v-102h-279v102z"/>
<glyph glyph-name="degree" horiz-adv-x="429" unicode="°" d="M135 498q0 -34 22.5 -56.5t56.5 -22.5q33 0 54.5 22.5t21.5 56.5q0 35 -21.5 57.5t-54.5 22.5t-56 -22.5t-23 -57.5zM40 499q0 74 50 125t123 51t124.5 -51.5t51.5 -124.5t-51 -123t-125 -50q-73 0 -123 50t-50 123z"/>
<glyph glyph-name="plusminus" horiz-adv-x="424" unicode="±" d="M40 71v95h344v-95h-344zM163 255v126h-123v95h123v126h98v-126h123v-95h-123v-126h-98z"/>
<glyph glyph-name="uni00B2" horiz-adv-x="366" unicode="²" d="M313 413v-96h-235v67l67 66q6 6 22 20t25.5 23t17.5 22.5t8 25.5q0 14 -10 25t-27 11q-38 0 -55 -47l-76 36q16 48 56 75.5t89 27.5t85 -26.5t36 -73.5q0 -11 -3 -22.5t-5.5 -19.5t-10.5 -20t-11 -17t-15 -17.5t-14.5 -14.5t-16.5 -16l-14 -13l-17 -16h104z"/>
<glyph glyph-name="uni00B3" horiz-adv-x="373" unicode="³" d="M263 501q60 -29 60 -82q0 -42 -38 -74.5t-98 -32.5q-92 0 -137 70l66 55q29 -40 68 -40q17 0 28 8.5t11 20.5q0 14 -14.5 24.5t-37.5 10.5h-14v61h14q21 0 33.5 9t12.5 20t-11 20t-27 9q-32 0 -55 -30l-60 48q49 70 135 70q51 0 80 -27.5t29 -64.5q0 -51 -45 -75z"/>
<glyph glyph-name="acute" horiz-adv-x="263" unicode="´" d="M0 653l238 73l25 -92l-235 -71z"/>
<glyph glyph-name="paragraph" horiz-adv-x="547" unicode="¶" d="M261 369v190h-19q-49 0 -76 -26.5t-27 -64.5q0 -39 28 -69t77 -30h17zM477 658v-658h-75v559h-66v-559h-75v272h-29q-93 0 -147.5 58t-54.5 137q0 77 52 134t145 57h250z"/>
<glyph glyph-name="periodcentered" horiz-adv-x="234" unicode="·" d="M117 392q32 0 54.5 -22.5t22.5 -54.5t-22.5 -54.5t-54.5 -22.5q-31 0 -54 23t-23 54q0 32 22.5 54.5t54.5 22.5z"/>
<glyph glyph-name="cedilla" horiz-adv-x="254" unicode="¸" d="M146 -38q52 -8 80 -36t28 -63q0 -41 -34 -72t-90 -31q-80 0 -130 58l45 48q38 -43 83 -43q25 0 42 12t17 33q0 48 -106 61l34 108h56z"/>
<glyph glyph-name="uni00B9" horiz-adv-x="239" unicode="¹" d="M103 318v250h-63v96h159v-346h-96z"/>
<glyph glyph-name="ordmasculine" horiz-adv-x="462" unicode="º" d="M231 581q-44 0 -73 -30t-29 -76t29 -76.5t73 -30.5t73 30.5t29 76.5t-29 76t-73 30zM231 675q86 0 143.5 -58t57.5 -143t-57.5 -143t-143.5 -58t-143.5 58t-57.5 143t57.5 143t143.5 58z"/>
<glyph glyph-name="guillemotright" horiz-adv-x="568" unicode="»" d="M434 261l-124 147l77 65l181 -212l-181 -212l-77 65zM184 261l-124 147l77 65l181 -212l-181 -212l-77 65z"/>
<glyph glyph-name="onequarter" horiz-adv-x="800" unicode="¼" d="M610 276l-98 -131h98v131zM700 344v-199h60v-89h-60v-56h-90v56h-188v76l163 212h115zM189 43l-69 57l449 544l70 -55zM103 318v250h-63v96h159v-346h-96z"/>
<glyph glyph-name="onehalf" horiz-adv-x="765" unicode="½" d="M722 96v-96h-235v67l67 66q6 6 22 20t25.5 23t17.5 22.5t8 25.5q0 14 -10.5 25t-26.5 11q-38 0 -55 -47l-76 36q16 48 56 75.5t89 27.5t85 -26.5t36 -73.5q0 -11 -3 -22.5t-5.5 -19.5t-10.5 -20t-11 -17t-15 -17.5t-14.5 -14.5t-16.5 -15l-14 -14l-17 -16h104zM189 43 l-69 57l449 544l70 -55zM103 318v250h-63v96h159v-346h-96z"/>
<glyph glyph-name="threequarters" horiz-adv-x="850" unicode="¾" d="M660 276l-98 -131h98v131zM750 344v-199h60v-89h-60v-56h-90v56h-188v76l163 212h115zM239 43l-69 57l449 544l70 -55zM263 501q60 -29 60 -82q0 -42 -38 -74.5t-98 -32.5q-92 0 -137 70l66 55q29 -40 68 -40q17 0 28 8.5t11 20.5q0 14 -14.5 24.5t-37.5 10.5h-14v61h14 q21 0 33.5 9t12.5 20t-11 20t-27 9q-32 0 -55 -30l-60 48q49 70 135 70q51 0 80 -27.5t29 -64.5q0 -51 -45 -75z"/>
<glyph glyph-name="questiondown" horiz-adv-x="474" unicode="¿" d="M233 -117q-95 0 -149 53t-54 125q0 71 49 127t140 67v105h105v-173h-42q-71 0 -110 -34.5t-39 -80.5q0 -38 28 -64.5t77 -26.5q79 0 127 75l79 -60q-36 -53 -91.5 -83t-119.5 -30zM270 421q-32 0 -53 21.5t-21 52.5t21.5 52t52.5 21t52 -21t21 -52q0 -32 -21 -53t-52 -21 z"/>
<glyph glyph-name="Agrave" horiz-adv-x="659" unicode="À" d="M423 265l-94 252l-93 -252h187zM459 166h-260l-61 -166h-118l257 658h106l256 -658h-118zM442 803l-28 -90l-235 71l25 92z"/>
<glyph glyph-name="Aacute" horiz-adv-x="659" unicode="Á" d="M423 265l-94 252l-93 -252h187zM459 166h-260l-61 -166h-118l257 658h106l256 -658h-118zM220 804l238 73l25 -92l-235 -71z"/>
<glyph glyph-name="Acircumflex" horiz-adv-x="659" unicode="Â" d="M423 265l-94 252l-93 -252h187zM459 166h-260l-61 -166h-118l257 658h106l256 -658h-118zM506 783l-57 -68l-118 90l-120 -90l-57 68l176 131z"/>
<glyph glyph-name="Atilde" horiz-adv-x="659" unicode="Ã" d="M423 265l-94 252l-93 -252h187zM459 166h-260l-61 -166h-118l257 658h106l256 -658h-118zM501 806q-17 -28 -30 -45t-33.5 -31.5t-41.5 -14.5q-24 0 -61 24t-53 24q-23 0 -64 -45l-60 50q61 93 121 93q26 0 63.5 -23t51.5 -23q22 0 49 37z"/>
<glyph glyph-name="Adieresis" horiz-adv-x="659" unicode="Ä" d="M423 265l-94 252l-93 -252h187zM459 166h-260l-61 -166h-118l257 658h106l256 -658h-118zM508 782q0 -28 -20 -47.5t-49 -19.5q-28 0 -48 19.5t-20 47.5t19.5 48t48.5 20t49 -19.5t20 -48.5zM288 782q0 -28 -20 -47.5t-48 -19.5t-48 19.5t-20 47.5t20 48t48 20t48 -20 t20 -48z"/>
<glyph glyph-name="Aring" horiz-adv-x="659" unicode="Å" d="M423 265l-94 252l-93 -252h187zM459 166h-260l-61 -166h-118l257 658h106l256 -658h-118zM276 830q0 -23 15 -39t38 -16q22 0 37.5 16t15.5 39t-15.5 39t-37.5 16q-23 0 -38 -16t-15 -39zM212 830q0 49 33.5 83.5t83.5 34.5q49 0 84 -34.5t35 -83.5t-35 -82.5t-84 -33.5 q-50 0 -83.5 33t-33.5 83z"/>
<glyph glyph-name="AE" horiz-adv-x="905" unicode="Æ" d="M460 265v298h-36l-148 -298h184zM845 99v-99h-385v166h-234l-83 -166h-123l341 658h476v-99h-269v-181h213v-99h-213v-180h277z"/>
<glyph glyph-name="Ccedilla" horiz-adv-x="714" unicode="Ç" d="M684 191q-41 -92 -115 -144t-163 -61l-11 -34q52 -8 80 -36t28 -63q0 -41 -34 -72t-90 -31q-80 0 -130 58l45 48q38 -43 83 -43q25 0 42 12t17 33q0 48 -106 61l21 67q-126 9 -213.5 99t-87.5 240q0 109 50 190.5t127 120.5t166 39q77 0 144 -29.5t113 -83.5l-73 -79 q-70 89 -188 89q-95 0 -162 -64t-67 -178q0 -113 65.5 -177.5t158.5 -64.5q68 0 125.5 38.5t88.5 111.5z"/>
<glyph glyph-name="Egrave" horiz-adv-x="535" unicode="È" d="M467 559h-279v-181h223v-99h-223v-180h287v-99h-395v658h387v-99zM401 803l-28 -90l-235 71l25 92z"/>
<glyph glyph-name="Eacute" horiz-adv-x="535" unicode="É" d="M467 559h-279v-181h223v-99h-223v-180h287v-99h-395v658h387v-99zM170 804l238 73l25 -92l-235 -71z"/>
<glyph glyph-name="Ecircumflex" horiz-adv-x="535" unicode="Ê" d="M467 559h-279v-181h223v-99h-223v-180h287v-99h-395v658h387v-99zM454 783l-57 -68l-118 90l-120 -90l-57 68l176 131z"/>
<glyph glyph-name="Edieresis" horiz-adv-x="535" unicode="Ë" d="M467 559h-279v-181h223v-99h-223v-180h287v-99h-395v658h387v-99zM456 782q0 -28 -20 -47.5t-49 -19.5q-28 0 -48 19.5t-20 47.5t19.5 48t48.5 20t49 -19.5t20 -48.5zM236 782q0 -28 -20 -47.5t-48 -19.5t-48 19.5t-20 47.5t20 48t48 20t48 -20t20 -48z"/>
<glyph glyph-name="Igrave" horiz-adv-x="268" unicode="Ì" d="M80 0v658h108v-658h-108zM252 803l-28 -90l-235 71l25 92z"/>
<glyph glyph-name="Iacute" horiz-adv-x="268" unicode="Í" d="M80 0v658h108v-658h-108zM20 804l238 73l25 -92l-235 -71z"/>
<glyph glyph-name="Icircumflex" horiz-adv-x="265" unicode="Î" d="M80 0v658h108v-658h-108zM309 783l-57 -68l-118 90l-120 -90l-57 68l176 131z"/>
<glyph glyph-name="Idieresis" horiz-adv-x="268" unicode="Ï" d="M81 0v658h108v-658h-108zM313 782q0 -28 -20 -47.5t-49 -19.5q-28 0 -48 19.5t-20 47.5t20 48t48 20q29 0 49 -19.5t20 -48.5zM93 782q0 -28 -20 -47.5t-48 -19.5t-48 19.5t-20 47.5t19.5 48t48.5 20t48.5 -20t19.5 -48z"/>
<glyph glyph-name="Eth" horiz-adv-x="692" unicode="Ð" d="M303 99q109 0 169 67.5t60 162.5q0 94 -59 162t-165 68h-120v-192h142v-75h-142v-193h115zM309 658q156 0 244.5 -95t88.5 -227q0 -63 -22 -122t-63.5 -107.5t-110 -77.5t-153.5 -29h-213v292h-115v75h115v291h229z"/>
<glyph glyph-name="Ntilde" horiz-adv-x="706" unicode="Ñ" d="M80 0v658h108l330 -465v465h108v-658h-108l-330 461v-461h-108zM528 806q-17 -28 -30 -45t-33.5 -31.5t-41.5 -14.5q-25 0 -62 24t-52 24q-23 0 -64 -45l-60 50q61 93 121 93q26 0 63.5 -23t51.5 -23q22 0 49 37z"/>
<glyph glyph-name="Ograve" d="M390 570q-97 0 -163.5 -69t-66.5 -172t66.5 -172t163.5 -69q96 0 163 69t67 172t-67 172t-163 69zM390 673q145 0 242.5 -99t97.5 -245t-97.5 -245t-242.5 -99t-242.5 99t-97.5 245t97.5 245t242.5 99zM487 803l-28 -90l-235 71l25 92z" unicode="Ò"/>
<glyph glyph-name="Oacute" d="M390 570q-97 0 -163.5 -69t-66.5 -172t66.5 -172t163.5 -69q96 0 163 69t67 172t-67 172t-163 69zM390 673q145 0 242.5 -99t97.5 -245t-97.5 -245t-242.5 -99t-242.5 99t-97.5 245t97.5 245t242.5 99zM300 804l238 73l25 -92l-235 -71z" unicode="Ó"/>
<glyph glyph-name="Ocircumflex" d="M390 570q-97 0 -163.5 -69t-66.5 -172t66.5 -172t163.5 -69q96 0 163 69t67 172t-67 172t-163 69zM390 673q145 0 242.5 -99t97.5 -245t-97.5 -245t-242.5 -99t-242.5 99t-97.5 245t97.5 245t242.5 99zM566 783l-57 -68l-118 90l-120 -90l-57 68l176 131z" unicode="Ô"/>
<glyph glyph-name="Otilde" d="M390 570q-97 0 -163.5 -69t-66.5 -172t66.5 -172t163.5 -69q96 0 163 69t67 172t-67 172t-163 69zM390 673q145 0 242.5 -99t97.5 -245t-97.5 -245t-242.5 -99t-242.5 99t-97.5 245t97.5 245t242.5 99zM562 806q-17 -28 -30 -45t-33.5 -31.5t-41.5 -14.5q-25 0 -62 24 t-52 24q-23 0 -64 -45l-60 50q61 93 121 93q26 0 63.5 -23t51.5 -23q22 0 49 37z" unicode="Õ"/>
<glyph glyph-name="Odieresis" d="M390 570q-97 0 -163.5 -69t-66.5 -172t66.5 -172t163.5 -69q96 0 163 69t67 172t-67 172t-163 69zM390 673q145 0 242.5 -99t97.5 -245t-97.5 -245t-242.5 -99t-242.5 99t-97.5 245t97.5 245t242.5 99zM568 782q0 -28 -20 -47.5t-49 -19.5q-28 0 -48 19.5t-20 47.5 t19.5 48t48.5 20t49 -19.5t20 -48.5zM348 782q0 -28 -20 -47.5t-48 -19.5t-48 19.5t-20 47.5t20 48t48 20t48 -20t20 -48z" unicode="Ö"/>
<glyph glyph-name="multiply" horiz-adv-x="372" unicode="×" d="M342 341l-86 -89l86 -88l-68 -66l-87 87l-88 -88l-69 68l89 88l-89 88l68 66l87 -87l90 89z"/>
<glyph glyph-name="Oslash" d="M390 88q96 0 163 69t67 172q0 68 -30.5 123t-82.5 86l-171 -444q26 -6 54 -6zM160 329q0 -69 31 -124t84 -86l172 444q-25 7 -57 7q-97 0 -163.5 -69t-66.5 -172zM546 637q85 -43 134.5 -124.5t49.5 -183.5q0 -146 -97.5 -245t-242.5 -99q-48 0 -92 12l-42 -108l-61 24 l41 107q-85 42 -135.5 124t-50.5 185q0 146 97.5 245t242.5 99q52 0 95 -13l39 102l61 -24z" unicode="Ø"/>
<glyph glyph-name="Ugrave" horiz-adv-x="648" unicode="Ù" d="M324 -15q-66 0 -122 26t-94 83t-38 136v428h108v-407q0 -79 42.5 -120.5t103.5 -41.5t103.5 41t42.5 121v407h108v-428q0 -117 -75.5 -181t-178.5 -64zM433 803l-28 -90l-235 71l25 92z"/>
<glyph glyph-name="Uacute" horiz-adv-x="648" unicode="Ú" d="M324 -15q-66 0 -122 26t-94 83t-38 136v428h108v-407q0 -79 42.5 -120.5t103.5 -41.5t103.5 41t42.5 121v407h108v-428q0 -117 -75.5 -181t-178.5 -64zM227 804l238 73l25 -92l-235 -71z"/>
<glyph glyph-name="Ucircumflex" horiz-adv-x="648" unicode="Û" d="M324 -15q-66 0 -122 26t-94 83t-38 136v428h108v-407q0 -79 42.5 -120.5t103.5 -41.5t103.5 41t42.5 121v407h108v-428q0 -117 -75.5 -181t-178.5 -64zM500 783l-57 -68l-118 90l-120 -90l-57 68l176 131z"/>
<glyph glyph-name="Udieresis" horiz-adv-x="648" unicode="Ü" d="M324 -15q-66 0 -122 26t-94 83t-38 136v428h108v-407q0 -79 42.5 -120.5t103.5 -41.5t103.5 41t42.5 121v407h108v-428q0 -117 -75.5 -181t-178.5 -64zM502 782q0 -28 -20 -47.5t-49 -19.5q-28 0 -48 19.5t-20 47.5t19.5 48t48.5 20t49 -19.5t20 -48.5zM282 782 q0 -28 -20 -47.5t-48 -19.5t-48 19.5t-20 47.5t20 48t48 20t48 -20t20 -48z"/>
<glyph glyph-name="Yacute" horiz-adv-x="618" unicode="Ý" d="M363 283v-283h-108v284l-245 374h133l166 -271l167 271h132zM230 804l238 73l25 -92l-235 -71z"/>
<glyph glyph-name="Thorn" horiz-adv-x="541" unicode="Þ" d="M297 269q49 0 77 30t28 69q0 38 -27 64.5t-76 26.5h-111v-190h109zM314 558q93 0 145 -57t52 -134q0 -79 -54.5 -137t-147.5 -58h-121v-172h-108v658h108v-100h126z"/>
<glyph glyph-name="germandbls" horiz-adv-x="546" unicode="ß" d="M378 355q58 -22 88 -64.5t30 -97.5q0 -77 -54.5 -135t-160.5 -58h-53v94h62q46 0 74.5 29.5t28.5 68.5q0 41 -31.5 72t-92.5 31h-31v88h20q44 0 73 32t29 73q0 43 -28.5 69t-69.5 26q-46 0 -72 -30t-26 -90v-463h-104v472q0 98 59.5 150.5t142.5 52.5q82 0 141.5 -46.5 t59.5 -127.5q0 -95 -85 -146z"/>
<glyph glyph-name="agrave" horiz-adv-x="643" unicode="à" d="M283 85q58 0 101 41t43 114t-42.5 113t-100.5 40q-57 0 -98.5 -40t-41.5 -114t40.5 -114t98.5 -40zM633 27q-32 -36 -85 -36q-38 0 -68.5 21t-39.5 61q-29 -41 -76 -62t-97 -21q-92 0 -159.5 66t-67.5 181q0 118 71 183.5t167 65.5q107 0 151 -71v59h102v-346 q0 -43 35 -43q22 0 37 12zM408 653l-28 -90l-235 71l25 92z"/>
<glyph glyph-name="aacute" horiz-adv-x="643" unicode="á" d="M283 85q58 0 101 41t43 114t-42.5 113t-100.5 40q-57 0 -98.5 -40t-41.5 -114t40.5 -114t98.5 -40zM633 27q-32 -36 -85 -36q-38 0 -68.5 21t-39.5 61q-29 -41 -76 -62t-97 -21q-92 0 -159.5 66t-67.5 181q0 118 71 183.5t167 65.5q107 0 151 -71v59h102v-346 q0 -43 35 -43q22 0 37 12zM210 653l238 73l25 -92l-235 -71z"/>
<glyph glyph-name="acircumflex" horiz-adv-x="643" unicode="â" d="M283 85q58 0 101 41t43 114t-42.5 113t-100.5 40q-57 0 -98.5 -40t-41.5 -114t40.5 -114t98.5 -40zM633 27q-32 -36 -85 -36q-38 0 -68.5 21t-39.5 61q-29 -41 -76 -62t-97 -21q-92 0 -159.5 66t-67.5 181q0 118 71 183.5t167 65.5q107 0 151 -71v59h102v-346 q0 -43 35 -43q22 0 37 12zM476 623l-57 -68l-118 90l-120 -90l-57 68l176 131z"/>
<glyph glyph-name="atilde" horiz-adv-x="643" unicode="ã" d="M283 85q58 0 101 41t43 114t-42.5 113t-100.5 40q-57 0 -98.5 -40t-41.5 -114t40.5 -114t98.5 -40zM633 27q-32 -36 -85 -36q-38 0 -68.5 21t-39.5 61q-29 -41 -76 -62t-97 -21q-92 0 -159.5 66t-67.5 181q0 118 71 183.5t167 65.5q107 0 151 -71v59h102v-346 q0 -43 35 -43q22 0 37 12zM462 655q-17 -28 -30 -45t-33.5 -31.5t-41.5 -14.5q-25 0 -62 24t-52 24q-23 0 -64 -45l-60 50q61 93 121 93q26 0 63.5 -23t51.5 -23q22 0 49 37z"/>
<glyph glyph-name="adieresis" horiz-adv-x="643" unicode="ä" d="M283 85q58 0 101 41t43 114t-42.5 113t-100.5 40q-57 0 -98.5 -40t-41.5 -114t40.5 -114t98.5 -40zM633 27q-32 -36 -85 -36q-38 0 -68.5 21t-39.5 61q-29 -41 -76 -62t-97 -21q-92 0 -159.5 66t-67.5 181q0 118 71 183.5t167 65.5q107 0 151 -71v59h102v-346 q0 -43 35 -43q22 0 37 12zM480 633q0 -28 -20 -47.5t-49 -19.5q-28 0 -48 19.5t-20 47.5q0 29 19.5 48.5t48.5 19.5t49 -19.5t20 -48.5zM260 633q0 -28 -20 -47.5t-48 -19.5t-48 19.5t-20 47.5q0 29 20 48.5t48 19.5t48 -19.5t20 -48.5z"/>
<glyph glyph-name="aring" horiz-adv-x="643" unicode="å" d="M283 85q58 0 101 41t43 114t-42.5 113t-100.5 40q-57 0 -98.5 -40t-41.5 -114t40.5 -114t98.5 -40zM633 27q-32 -36 -85 -36q-38 0 -68.5 21t-39.5 61q-29 -41 -76 -62t-97 -21q-92 0 -159.5 66t-67.5 181q0 118 71 183.5t167 65.5q107 0 151 -71v59h102v-346 q0 -43 35 -43q22 0 37 12zM241 680q0 -23 15 -39t38 -16q22 0 37.5 16t15.5 39t-15.5 39t-37.5 16q-23 0 -38 -16t-15 -39zM177 680q0 49 33.5 83.5t83.5 34.5q49 0 84 -34.5t35 -83.5t-35 -82.5t-84 -33.5q-50 0 -83.5 33t-33.5 83z"/>
<glyph glyph-name="ae" horiz-adv-x="874" unicode="æ" d="M215 84q55 0 98.5 35.5t43.5 99.5h-137q-43 0 -65.5 -18t-22.5 -49q0 -30 21.5 -49t61.5 -19zM730 277q-1 56 -35 86t-82 30t-84.5 -30.5t-42.5 -85.5h244zM834 250q0 -35 -4 -59h-341q11 -52 49 -78t88 -26q86 0 134 67l67 -65q-79 -99 -203 -99q-69 0 -127 32.5 t-89 91.5q-63 -124 -197 -124q-86 0 -133.5 47.5t-47.5 115.5q0 73 57.5 109t160.5 36h112q-10 95 -121 95q-75 0 -123 -58l-64 69q85 82 196 82q58 0 106 -25.5t73 -72.5q60 98 187 98q97 0 158.5 -60.5t61.5 -175.5z"/>
<glyph glyph-name="ccedilla" horiz-adv-x="515" unicode="ç" d="M495 120q-31 -59 -86.5 -93t-119.5 -37l-9 -28q52 -8 80 -36t28 -63q0 -41 -34 -72t-90 -31q-80 0 -130 58l45 48q38 -43 83 -43q25 0 42 12t17 33q0 48 -106 61l20 65q-83 14 -139 78t-56 166q0 116 72 182t170 66q56 0 107.5 -24t86.5 -70l-70 -66q-41 64 -119 64 q-58 0 -101 -40t-43 -111q0 -70 42.5 -110.5t99.5 -40.5q38 0 75 20.5t59 64.5z"/>
<glyph glyph-name="egrave" horiz-adv-x="538" unicode="è" d="M277 393q-48 0 -84.5 -30.5t-42.5 -85.5h244q-1 56 -35 86t-82 30zM498 250q0 -35 -4 -59h-341q11 -52 49 -78t88 -26q86 0 134 67l67 -65q-79 -99 -204 -99q-99 0 -173 67t-74 183q0 115 71.5 180.5t170.5 65.5q93 0 154.5 -61t61.5 -175zM391 653l-28 -90l-235 71 l25 92z"/>
<glyph glyph-name="eacute" horiz-adv-x="538" unicode="é" d="M277 393q-48 0 -84.5 -30.5t-42.5 -85.5h244q-1 56 -35 86t-82 30zM498 250q0 -35 -4 -59h-341q11 -52 49 -78t88 -26q86 0 134 67l67 -65q-79 -99 -204 -99q-99 0 -173 67t-74 183q0 115 71.5 180.5t170.5 65.5q93 0 154.5 -61t61.5 -175zM182 653l238 73l25 -92 l-235 -71z"/>
<glyph glyph-name="ecircumflex" horiz-adv-x="538" unicode="ê" d="M277 393q-48 0 -84.5 -30.5t-42.5 -85.5h244q-1 56 -35 86t-82 30zM498 250q0 -35 -4 -59h-341q11 -52 49 -78t88 -26q86 0 134 67l67 -65q-79 -99 -204 -99q-99 0 -173 67t-74 183q0 115 71.5 180.5t170.5 65.5q93 0 154.5 -61t61.5 -175zM462 623l-57 -68l-118 90 l-120 -90l-57 68l176 131z"/>
<glyph glyph-name="edieresis" horiz-adv-x="538" unicode="ë" d="M277 393q-48 0 -84.5 -30.5t-42.5 -85.5h244q-1 56 -35 86t-82 30zM498 250q0 -35 -4 -59h-341q11 -52 49 -78t88 -26q86 0 134 67l67 -65q-79 -99 -204 -99q-99 0 -173 67t-74 183q0 115 71.5 180.5t170.5 65.5q93 0 154.5 -61t61.5 -175zM464 633q0 -28 -20 -47.5 t-49 -19.5q-28 0 -48 19.5t-20 47.5q0 29 19.5 48.5t48.5 19.5t49 -19.5t20 -48.5zM244 633q0 -28 -20 -47.5t-48 -19.5t-48 19.5t-20 47.5q0 29 20 48.5t48 19.5t48 -19.5t20 -48.5z"/>
<glyph glyph-name="igrave" horiz-adv-x="253" unicode="ì" d="M60 0v474h104v-474h-104zM213 653l-28 -90l-235 71l25 92z"/>
<glyph glyph-name="iacute" horiz-adv-x="253" unicode="í" d="M77 0v474h104v-474h-104zM40 653l238 73l25 -92l-235 -71z"/>
<glyph glyph-name="icircumflex" horiz-adv-x="232" unicode="î" d="M64 0v474h104v-474h-104zM292 623l-57 -68l-118 90l-120 -90l-57 68l176 131z"/>
<glyph glyph-name="idieresis" horiz-adv-x="256" unicode="ï" d="M76 0v474h104v-474h-104zM306 633q0 -28 -20 -47.5t-49 -19.5q-28 0 -48 19.5t-20 47.5q0 29 19.5 48.5t48.5 19.5t49 -19.5t20 -48.5zM86 633q0 -28 -20 -47.5t-48 -19.5t-48 19.5t-20 47.5q0 29 20 48.5t48 19.5t48 -19.5t20 -48.5z"/>
<glyph glyph-name="eth" horiz-adv-x="550" unicode="ð" d="M268 80q63 0 96.5 39t33.5 92q0 54 -35.5 92t-98.5 38t-95.5 -37.5t-32.5 -92.5q0 -53 34.5 -92t97.5 -39zM322 642q98 -45 148 -140t50 -210q0 -132 -64.5 -218t-184.5 -89h-7q-109 0 -171.5 71.5t-62.5 165.5q0 88 57 150.5t159 62.5q114 0 165 -84q-20 145 -124 199 l-22 -58l-55 19l22 60q-39 9 -82 9l6 95q55 0 109 -13l23 62l58 -19z"/>
<glyph glyph-name="ntilde" horiz-adv-x="563" unicode="ñ" d="M70 0v474h102v-68q50 80 150 80q71 0 121 -46t50 -131v-309h-104v273q0 57 -26.5 85t-69.5 28q-51 0 -85 -37.5t-34 -103.5v-245h-104zM465 655q-17 -28 -30 -45t-33.5 -31.5t-41.5 -14.5q-24 0 -61 24t-53 24q-23 0 -64 -45l-60 50q61 93 121 93q26 0 63.5 -23t51.5 -23 q22 0 49 37z"/>
<glyph glyph-name="ograve" horiz-adv-x="576" unicode="ò" d="M288 390q-63 0 -104 -42.5t-41 -108.5t40.5 -109t104.5 -43t104.5 43t40.5 109t-41 108.5t-104 42.5zM288 486q107 0 177.5 -71t70.5 -177t-70.5 -177t-177.5 -71t-177.5 71t-70.5 177t70.5 177t177.5 71zM393 653l-28 -90l-235 71l25 92z"/>
<glyph glyph-name="oacute" horiz-adv-x="576" unicode="ó" d="M288 390q-63 0 -104 -42.5t-41 -108.5t40.5 -109t104.5 -43t104.5 43t40.5 109t-41 108.5t-104 42.5zM288 486q107 0 177.5 -71t70.5 -177t-70.5 -177t-177.5 -71t-177.5 71t-70.5 177t70.5 177t177.5 71zM180 653l238 73l25 -92l-235 -71z"/>
<glyph glyph-name="ocircumflex" horiz-adv-x="576" unicode="ô" d="M288 390q-63 0 -104 -42.5t-41 -108.5t40.5 -109t104.5 -43t104.5 43t40.5 109t-41 108.5t-104 42.5zM288 486q107 0 177.5 -71t70.5 -177t-70.5 -177t-177.5 -71t-177.5 71t-70.5 177t70.5 177t177.5 71zM464 623l-57 -68l-118 90l-120 -90l-57 68l176 131z"/>
<glyph glyph-name="otilde" horiz-adv-x="576" unicode="õ" d="M288 390q-63 0 -104 -42.5t-41 -108.5t40.5 -109t104.5 -43t104.5 43t40.5 109t-41 108.5t-104 42.5zM288 486q107 0 177.5 -71t70.5 -177t-70.5 -177t-177.5 -71t-177.5 71t-70.5 177t70.5 177t177.5 71zM465 655q-17 -28 -30 -45t-33.5 -31.5t-41.5 -14.5q-24 0 -61 24 t-53 24q-23 0 -64 -45l-60 50q61 93 121 93q26 0 63.5 -23t51.5 -23q22 0 49 37z"/>
<glyph glyph-name="odieresis" horiz-adv-x="576" unicode="ö" d="M288 390q-63 0 -104 -42.5t-41 -108.5t40.5 -109t104.5 -43t104.5 43t40.5 109t-41 108.5t-104 42.5zM288 486q107 0 177.5 -71t70.5 -177t-70.5 -177t-177.5 -71t-177.5 71t-70.5 177t70.5 177t177.5 71zM466 633q0 -28 -20 -47.5t-49 -19.5q-28 0 -48 19.5t-20 47.5 q0 29 19.5 48.5t48.5 19.5t49 -19.5t20 -48.5zM246 633q0 -28 -20 -47.5t-48 -19.5t-48 19.5t-20 47.5q0 29 20 48.5t48 19.5t48 -19.5t20 -48.5z"/>
<glyph glyph-name="divide" horiz-adv-x="424" unicode="÷" d="M139 92q0 32 21 53t52 21q32 0 53 -21t21 -53q0 -31 -21.5 -52t-52.5 -21t-52 21t-21 52zM40 217v95h344v-95h-344zM139 432q0 32 21 53t52 21q32 0 53 -21t21 -53q0 -31 -21.5 -52t-52.5 -21t-52 21t-21 52z"/>
<glyph glyph-name="oslash" horiz-adv-x="576" unicode="ø" d="M288 87q64 0 104.5 43t40.5 109q0 83 -61 125l-107 -275q16 -2 23 -2zM143 239q0 -84 61 -127l107 276q-14 2 -23 2q-63 0 -104 -42.5t-41 -108.5zM409 457q59 -31 93 -89t34 -130q0 -106 -70.5 -177t-177.5 -71q-31 0 -58 6l-42 -107l-61 24l41 105q-59 31 -93.5 89.5 t-34.5 130.5q0 106 70.5 177t177.5 71q30 0 59 -6l42 108l61 -24z"/>
<glyph glyph-name="ugrave" horiz-adv-x="549" unicode="ù" d="M479 474v-474h-102v63q-51 -73 -140 -73q-72 0 -124.5 47.5t-52.5 138.5v298h104v-272q0 -52 25.5 -80.5t67.5 -28.5q48 0 83 37t35 102v242h104zM373 653l-28 -90l-235 71l25 92z"/>
<glyph glyph-name="uacute" horiz-adv-x="549" unicode="ú" d="M479 474v-474h-102v63q-51 -73 -140 -73q-72 0 -124.5 47.5t-52.5 138.5v298h104v-272q0 -52 25.5 -80.5t67.5 -28.5q48 0 83 37t35 102v242h104zM172 653l238 73l25 -92l-235 -71z"/>
<glyph glyph-name="ucircumflex" horiz-adv-x="549" unicode="û" d="M479 474v-474h-102v63q-51 -73 -140 -73q-72 0 -124.5 47.5t-52.5 138.5v298h104v-272q0 -52 25.5 -80.5t67.5 -28.5q48 0 83 37t35 102v242h104zM445 623l-57 -68l-118 90l-120 -90l-57 68l176 131z"/>
<glyph glyph-name="udieresis" horiz-adv-x="549" unicode="ü" d="M479 474v-474h-102v63q-51 -73 -140 -73q-72 0 -124.5 47.5t-52.5 138.5v298h104v-272q0 -52 25.5 -80.5t67.5 -28.5q48 0 83 37t35 102v242h104zM445 633q0 -28 -20 -47.5t-49 -19.5q-28 0 -48 19.5t-20 47.5q0 29 20 48.5t48 19.5q29 0 49 -19.5t20 -48.5zM225 633 q0 -28 -20 -47.5t-48 -19.5t-48 19.5t-20 47.5q0 29 19.5 48.5t48.5 19.5t48.5 -19.5t19.5 -48.5z"/>
<glyph glyph-name="yacute" horiz-adv-x="580" unicode="ý" d="M510 474v-461q0 -109 -70 -171t-166 -62q-81 0 -147 45.5t-87 132.5l99 34q11 -54 50.5 -85t89.5 -31q54 0 91.5 36t37.5 101v76q-48 -84 -142 -84q-74 0 -131 51t-57 145v273h104v-257q0 -53 28 -82.5t73 -29.5q52 0 87.5 37.5t35.5 103.5v228h104zM189 653l238 73 l25 -92l-235 -71z"/>
<glyph glyph-name="thorn" horiz-adv-x="601" unicode="þ" d="M318 85q57 0 98.5 40.5t41.5 112.5t-42 111.5t-99 39.5q-58 0 -100.5 -39.5t-42.5 -110.5q0 -73 42.5 -113.5t101.5 -40.5zM329 482q91 0 161.5 -65t70.5 -180t-68.5 -181t-161.5 -66q-99 0 -157 67v-265h-104v866h104v-246q55 70 155 70z"/>
<glyph glyph-name="ydieresis" horiz-adv-x="580" unicode="ÿ" d="M510 474v-461q0 -109 -70 -171t-166 -62q-81 0 -147 45.5t-87 132.5l99 34q11 -54 50.5 -85t89.5 -31q54 0 91.5 36t37.5 101v76q-48 -84 -142 -84q-74 0 -131 51t-57 145v273h104v-257q0 -53 28 -82.5t73 -29.5q52 0 87.5 37.5t35.5 103.5v228h104zM467 633 q0 -28 -20 -47.5t-49 -19.5q-28 0 -48 19.5t-20 47.5q0 29 20 48.5t48 19.5q29 0 49 -19.5t20 -48.5zM247 633q0 -28 -20 -47.5t-48 -19.5t-48 19.5t-20 47.5q0 29 19.5 48.5t48.5 19.5t48.5 -19.5t19.5 -48.5z"/>
<glyph glyph-name="dotlessi" horiz-adv-x="224" unicode="ı" d="M60 0v474h104v-474h-104z"/>
<glyph glyph-name="Lslash" horiz-adv-x="493" unicode="Ł" d="M188 99h275v-99h-383v295l-73 -42l-34 61l107 60v284h108v-223l109 62l33 -60l-142 -81v-257z"/>
<glyph glyph-name="lslash" horiz-adv-x="320" unicode="ł" d="M234 81q19 0 41 8l34 -78q-43 -21 -92 -21q-63 0 -105 39t-42 119v147l-73 -42l-34 61l107 60v284h104v-225l113 64l33 -60l-146 -83v-201q0 -72 60 -72z"/>
<glyph glyph-name="OE" horiz-adv-x="878" unicode="Œ" d="M433 99v460h-56q-93 0 -154.5 -64t-61.5 -166t61.5 -166t154.5 -64h56zM818 99v-99h-441q-139 0 -233 94.5t-94 234.5t94 234.5t233 94.5h433v-99h-269v-181h213v-99h-213v-180h277z"/>
<glyph glyph-name="oe" horiz-adv-x="927" unicode="œ" d="M288 87q64 0 104.5 43t40.5 109t-41 108.5t-104 42.5t-104 -42.5t-41 -108.5t40.5 -109t104.5 -43zM783 277q-1 56 -35 86t-82 30t-84.5 -30.5t-42.5 -85.5h244zM887 250q0 -35 -4 -59h-341q11 -52 49 -78t88 -26q86 0 134 67l67 -65q-80 -99 -204 -99q-59 0 -110 26 t-84 75q-70 -101 -194 -101q-107 0 -177.5 71t-70.5 177t70.5 177t177.5 71q123 0 193 -100q67 100 190 100q93 0 154.5 -61t61.5 -175z"/>
<glyph glyph-name="Scaron" horiz-adv-x="559" unicode="Š" d="M422 524q-25 27 -63 42.5t-73 15.5q-45 0 -75 -25t-30 -70q0 -47 33 -71.5t98 -46.5q100 -34 134 -57q68 -47 68 -132q0 -93 -67.5 -144t-164.5 -51q-141 0 -237 96l72 85q31 -39 77 -60.5t94 -21.5q49 0 82 21.5t33 62.5q0 18 -8 32.5t-17 24t-30.5 20t-34 15.5 t-41.5 15q-36 13 -54.5 20.5t-50.5 26t-48.5 37.5t-30 50.5t-13.5 70.5q0 95 65 145t153 50q110 0 187 -75zM468 845l-176 -131l-176 131l57 68l120 -90l118 90z"/>
<glyph glyph-name="scaron" horiz-adv-x="480" unicode="š" d="M450 145q0 -71 -58 -113t-142 -42q-63 0 -123 24.5t-97 69.5l77 72q58 -73 152 -73q37 0 61.5 14t24.5 35q0 16 -15 26.5t-33.5 16t-51.5 12.5q-7 1 -10 2q-37 8 -61 16t-53.5 24.5t-44.5 44t-15 65.5q0 72 54 109.5t135 37.5q101 0 175 -55l-59 -77q-49 41 -116 41 q-36 0 -60 -14t-24 -40q0 -28 27 -40.5t85 -23.5q32 -6 49.5 -10.5t44.5 -15t41.5 -23t25.5 -34t11 -49.5zM416 684l-176 -131l-176 131l57 68l120 -90l118 90z"/>
<glyph glyph-name="Ydieresis" horiz-adv-x="618" unicode="Ÿ" d="M363 283v-283h-108v284l-245 374h133l166 -271l167 271h132zM487 782q0 -28 -20 -47.5t-49 -19.5q-28 0 -48 19.5t-20 47.5t20 48t48 20q29 0 49 -19.5t20 -48.5zM267 782q0 -28 -20 -47.5t-48 -19.5t-48 19.5t-20 47.5t19.5 48t48.5 20t48.5 -20t19.5 -48z"/>
<glyph glyph-name="Zcaron" horiz-adv-x="554" unicode="Ž" d="M40 0v89l325 470h-317v99h450v-88l-325 -471h341v-99h-474zM450 845l-176 -131l-176 131l57 68l120 -90l118 90z"/>
<glyph glyph-name="zcaron" horiz-adv-x="498" unicode="ž" d="M40 0v98l266 278h-255v98h392v-99l-258 -277h273v-98h-418zM421 684l-176 -131l-176 131l57 68l120 -90l118 90z"/>
<glyph glyph-name="florin" horiz-adv-x="328" unicode="ƒ" d="M245 584q-29 0 -46.5 -18t-17.5 -54v-38h123v-96h-123v-441q0 -78 -44.5 -117.5t-109.5 -39.5q-58 0 -107 32l39 80q27 -21 59 -21q26 0 42.5 17.5t16.5 52.5v437h-92v96h92v43q0 78 46 118t113 40q60 0 112 -32l-40 -81q-29 22 -63 22z"/>
<glyph glyph-name="circumflex" horiz-adv-x="352" unicode="ˆ" d="M352 623l-57 -68l-118 90l-120 -90l-57 68l176 131z"/>
<glyph glyph-name="caron" horiz-adv-x="352" unicode="ˇ" d="M352 684l-176 -131l-176 131l57 68l120 -90l118 90z"/>
<glyph glyph-name="breve" horiz-adv-x="250" unicode="˘" d="M250 692q0 -54 -31 -91t-94 -37t-94 37t-31 91h85q0 -18 10 -32.5t30 -14.5t30 14.5t10 32.5h85z"/>
<glyph glyph-name="dotaccent" horiz-adv-x="135" unicode="˙" d="M0 631q0 29 19.5 48.5t47.5 19.5q29 0 48.5 -19.5t19.5 -48.5q0 -28 -19.5 -47.5t-48.5 -19.5t-48 19t-19 48z"/>
<glyph glyph-name="ring" horiz-adv-x="236" unicode="˚" d="M64 680q0 -23 15 -39t38 -16q22 0 37.5 16t15.5 39t-15.5 39t-37.5 16q-23 0 -38 -16t-15 -39zM0 680q0 49 33.5 83.5t83.5 34.5q49 0 84 -34.5t35 -83.5t-35 -82.5t-84 -33.5q-50 0 -83.5 33t-33.5 83z"/>
<glyph glyph-name="ogonek" horiz-adv-x="155" unicode="˛" d="M155 -121v-69q-67 7 -111 42.5t-44 86.5q0 46 42 72h64q-39 -28 -39 -69q0 -25 25 -44t63 -19z"/>
<glyph glyph-name="tilde" horiz-adv-x="343" unicode="˜" d="M343 655q-17 -28 -30 -45t-33.5 -31.5t-41.5 -14.5q-24 0 -61 24t-53 24q-23 0 -64 -45l-60 50q61 93 121 93q26 0 63.5 -23t51.5 -23q22 0 49 37z"/>
<glyph glyph-name="hungarumlaut" horiz-adv-x="393" unicode="˝" d="M393 712l-115 -148h-112l88 148h139zM202 712l-90 -148h-112l63 148h139z"/>
<glyph glyph-name="uni03BC" horiz-adv-x="549" unicode="μ" d="M479 474v-474h-102v57q-42 -68 -122 -68q-52 0 -91 25v-222h-104v682h104v-271q0 -54 28 -82.5t67 -28.5q47 0 81.5 38t34.5 102v242h104z"/>
<glyph glyph-name="endash" horiz-adv-x="455" unicode="–" d="M50 307h355v-96h-355v96z"/>
<glyph glyph-name="emdash" horiz-adv-x="635" unicode="—" d="M50 307h535v-96h-535v96z"/>
<glyph glyph-name="quoteleft" horiz-adv-x="243" unicode="‘" d="M223 643l-92 -274l-111 44l117 265z"/>
<glyph glyph-name="quoteright" horiz-adv-x="243" unicode="’" d="M20 425l92 274l111 -44l-117 -265z"/>
<glyph glyph-name="quotesinglbase" horiz-adv-x="243" unicode="‚" d="M20 -144l92 274l111 -44l-117 -265z"/>
<glyph glyph-name="quotedblleft" horiz-adv-x="453" unicode="“" d="M433 643l-92 -274l-111 44l117 265zM223 643l-92 -274l-111 44l117 265z"/>
<glyph glyph-name="quotedblright" horiz-adv-x="453" unicode="”" d="M230 425l92 274l111 -44l-117 -265zM20 425l92 274l111 -44l-117 -265z"/>
<glyph glyph-name="quotedblbase" horiz-adv-x="453" unicode="„" d="M230 -144l92 274l111 -44l-117 -265zM20 -144l92 274l111 -44l-117 -265z"/>
<glyph glyph-name="dagger" horiz-adv-x="418" unicode="†" d="M261 658v-165h127v-96h-127v-397h-104v397h-127v96h127v165h104z"/>
<glyph glyph-name="daggerdbl" horiz-adv-x="418" unicode="‡" d="M157 261v136h-127v96h127v165h104v-165h127v-96h-127v-136h127v-96h-127v-165h-104v165h-127v96h127z"/>
<glyph glyph-name="bullet" horiz-adv-x="207" unicode="•" d="M177 255q0 -30 -21.5 -52t-50.5 -22q-31 0 -53 22t-22 52t22 51t53 21q29 0 50.5 -21t21.5 -51z"/>
<glyph glyph-name="ellipsis" horiz-adv-x="801" unicode="…" d="M594 63q0 32 21 53t52 21t52.5 -21.5t21.5 -52.5t-21.5 -52t-52.5 -21t-52 21t-21 52zM327 63q0 32 21 53t52 21q32 0 53 -21.5t21 -52.5t-21.5 -52t-52.5 -21t-52 21t-21 52zM60 63q0 32 21 53t52 21t52.5 -21.5t21.5 -52.5t-21.5 -52t-52.5 -21t-52 21t-21 52z"/>
<glyph glyph-name="perthousand" horiz-adv-x="1323" unicode="‰" d="M1039 157q0 -34 22.5 -56.5t56.5 -22.5q33 0 54.5 22.5t21.5 56.5q0 35 -21.5 57.5t-54.5 22.5t-56 -22.5t-23 -57.5zM639 157q0 -34 22.5 -56.5t56.5 -22.5q33 0 54.5 22.5t21.5 56.5q0 35 -21.5 57.5t-54.5 22.5t-56 -22.5t-23 -57.5zM944 158q0 74 50 125t123 51 t124.5 -51.5t51.5 -124.5t-51 -123t-125 -50q-73 0 -123 50t-50 123zM544 158q0 74 50 125t123 51t124.5 -51.5t51.5 -124.5t-51 -123t-125 -50q-73 0 -123 50t-50 123zM135 498q0 -34 22.5 -56.5t56.5 -22.5q33 0 54.5 22.5t21.5 56.5q0 35 -21.5 57.5t-54.5 22.5 t-56 -22.5t-23 -57.5zM288 43l-69 57l449 544l70 -55zM40 499q0 74 50 125t123 51t124.5 -51.5t51.5 -124.5t-51 -123t-125 -50q-73 0 -123 50t-50 123z"/>
<glyph glyph-name="guilsinglleft" horiz-adv-x="318" unicode="‹" d="M154 261l124 -147l-77 -65l-181 212l181 212l77 -65z"/>
<glyph glyph-name="guilsinglright" horiz-adv-x="318" unicode="›" d="M174 261l-124 147l77 65l181 -212l-181 -212l-77 65z"/>
<glyph glyph-name="fraction" horiz-adv-x="519" unicode="⁄" d="M69 43l-69 57l449 544l70 -55z"/>
<glyph glyph-name="uni2074" horiz-adv-x="418" unicode="⁴" d="M228 590l-98 -131h98v131zM318 658v-199h60v-89h-60v-56h-90v56h-188v76l163 212h115z"/>
<glyph glyph-name="Euro" horiz-adv-x="774" unicode="€" d="M658 238l86 -47q-44 -101 -127.5 -153.5t-181.5 -52.5q-110 0 -198 64.5t-116 179.5h-101v65h91q-1 10 -1 31q0 16 2 44h-92v65h104q33 114 124.5 177.5t204.5 63.5q77 0 144 -29.5t113 -83.5l-73 -79q-70 89 -188 89q-70 0 -127 -36t-83 -102h317v-65h-334 q-2 -24 -2 -39q0 -12 2 -36h334v-65h-319q25 -68 81.5 -104.5t125.5 -36.5q68 0 125.5 38.5t88.5 111.5z"/>
<glyph glyph-name="uni2116" horiz-adv-x="1089" unicode="№" d="M795 498q0 -34 22.5 -56.5t56.5 -22.5q33 0 54.5 22.5t21.5 56.5q0 35 -21.5 57.5t-54.5 22.5t-56 -22.5t-23 -57.5zM80 0v658h108l330 -465v465h108v-658h-108l-330 461v-461h-108zM700 499q0 74 50 125t123 51t124.5 -51.5t51.5 -124.5t-51 -123t-125 -50 q-73 0 -123 50t-50 123z"/>
<glyph glyph-name="trademark" horiz-adv-x="735" unicode="™" d="M360 325v333h73l94 -177l93 177h75v-333h-64v204l-78 -132h-51l-78 132v-204h-64zM141 325v272h-101v61h268v-61h-101v-272h-66z"/>
<glyph glyph-name="minus" horiz-adv-x="424" unicode="−" d="M40 211v95h344v-95h-344z"/>
<glyph glyph-name="infinity" horiz-adv-x="802" unicode="∞" d="M564 157q41 0 71 30t30 84q0 53 -28.5 81t-68.5 28q-44 0 -80.5 -32t-43.5 -88q15 -48 48 -75.5t72 -27.5zM234 162q44 0 80.5 32t43.5 88q-15 48 -48 75.5t-72 27.5q-41 0 -71 -30t-30 -84q0 -53 28.5 -81t68.5 -28zM573 486q79 0 139 -58.5t60 -155.5t-60.5 -156.5 t-141.5 -59.5q-109 0 -174 104q-60 -104 -167 -104q-79 0 -139 58.5t-60 155.5t60 156.5t141 59.5q110 0 175 -104q60 104 167 104z"/>
<glyph glyph-name="acute.cap" d="M0 804l238 73l25 -92l-235 -71z" horiz-adv-x="263"/>
<glyph glyph-name="breve.cap" d="M250 842q0 -54 -31 -91t-94 -37t-94 37t-31 91h85q0 -18 10 -32.5t30 -14.5t30 14.5t10 32.5h85z" horiz-adv-x="250"/>
<glyph glyph-name="caron.cap" d="M352 845l-176 -131l-176 131l57 68l120 -90l118 90z" horiz-adv-x="352"/>
<glyph glyph-name="cedilla.cap" d="M146 -48q52 -8 80 -36t28 -63q0 -41 -34 -72t-90 -31q-80 0 -130 58l45 48q38 -43 83 -43q25 0 42 12t17 33q0 48 -106 61l34 108h56z" horiz-adv-x="254"/>
<glyph glyph-name="circumflex.cap" d="M352 783l-57 -68l-118 90l-120 -90l-57 68l176 131z" horiz-adv-x="352"/>
<glyph glyph-name="dieresis.cap" d="M356 782q0 -28 -20 -47.5t-49 -19.5q-28 0 -48 19.5t-20 47.5t19.5 48t48.5 20t49 -19.5t20 -48.5zM136 782q0 -28 -20 -47.5t-48 -19.5t-48 19.5t-20 47.5t20 48t48 20t48 -20t20 -48z" horiz-adv-x="356"/>
<glyph glyph-name="dotaccent.cap" d="M0 781q0 29 19.5 48.5t47.5 19.5q29 0 48.5 -19.5t19.5 -48.5q0 -28 -19.5 -47.5t-48.5 -19.5t-48 19t-19 48z" horiz-adv-x="135"/>
<glyph glyph-name="grave.cap" d="M263 803l-28 -90l-235 71l25 92z" horiz-adv-x="263"/>
<glyph glyph-name="hungarumlaut.cap" d="M393 862l-115 -148h-112l88 148h139zM202 862l-90 -148h-112l63 148h139z" horiz-adv-x="393"/>
<glyph glyph-name="macron.cap" d="M0 816h279v-102h-279v102z" horiz-adv-x="279"/>
<glyph glyph-name="ogonek.cap" d="M155 -121v-69q-67 7 -111 42.5t-44 86.5q0 46 42 72h64q-39 -28 -39 -69q0 -25 25 -44t63 -19z" horiz-adv-x="155"/>
<glyph glyph-name="ring.cap" d="M64 830q0 -23 15 -39t38 -16q22 0 37.5 16t15.5 39t-15.5 39t-37.5 16q-23 0 -38 -16t-15 -39zM0 830q0 49 33.5 83.5t83.5 34.5q49 0 84 -34.5t35 -83.5t-35 -82.5t-84 -33.5q-50 0 -83.5 33t-33.5 83z" horiz-adv-x="236"/>
<glyph glyph-name="tilde.cap" d="M343 806q-17 -28 -30 -45t-33.5 -31.5t-41.5 -14.5q-24 0 -61 24t-53 24q-23 0 -64 -45l-60 50q61 93 121 93q26 0 63.5 -23t51.5 -23q22 0 49 37z" horiz-adv-x="343"/>
<glyph glyph-name="null" horiz-adv-x="20"/>
</font>
</defs>
</svg>
